<?xml version="1.0" standalone="no"?>
<!DOCTYPE svg PUBLIC "-//W3C//DTD SVG 20010904//EN"
 "http://www.w3.org/TR/2001/REC-SVG-20010904/DTD/svg10.dtd">
<svg version="1.0" xmlns="http://www.w3.org/2000/svg"
 width="512.000000pt" height="512.000000pt" viewBox="0 0 512.000000 512.000000"
 preserveAspectRatio="xMidYMid meet">
<metadata>
Created by potrace 1.14, written by Peter Selinger 2001-2017
</metadata>
<g transform="translate(0.000000,512.000000) scale(0.100000,-0.100000)"
fill="#000000" stroke="none">
<path d="M2389 4486 c-2 -2 -31 -7 -64 -10 -141 -16 -393 -82 -500 -130 -161
-73 -258 -126 -350 -189 -350 -240 -612 -586 -744 -982 -22 -66 -42 -131 -45
-145 -2 -14 -11 -56 -20 -95 -13 -65 -24 -138 -29 -208 -1 -22 -17 -42 -62
-80 -276 -236 -464 -499 -508 -713 -40 -194 24 -366 185 -500 67 -56 261 -142
360 -159 17 -3 34 -8 37 -10 4 -2 25 -6 47 -9 22 -4 51 -9 64 -11 24 -5 104
-14 185 -20 22 -2 81 -4 132 -4 90 -1 93 -2 125 -34 185 -184 461 -358 708
-445 112 -39 272 -78 390 -96 106 -15 396 -18 486 -5 103 16 118 19 144 24 14
4 41 9 60 12 68 11 300 92 401 141 118 57 243 134 351 215 66 50 232 207 283
268 156 186 282 407 358 626 38 107 82 292 92 383 3 30 8 69 10 85 2 22 16 41
51 70 91 75 262 255 332 348 196 260 245 489 148 692 -118 249 -472 391 -978
394 -88 1 -88 1 -127 39 -21 20 -55 51 -74 69 -43 39 -203 163 -210 163 -3 0
-29 16 -59 35 -45 30 -192 105 -263 135 -11 4 -36 15 -55 23 -75 32 -289 90
-385 103 -27 3 -59 9 -70 11 -24 6 -401 14 -406 9z m2029 -1278 l-22 -38 -12
28 c-29 70 -29 70 15 59 l40 -11 -21 -38z m-3679 -1290 c25 -66 24 -68 -8 -58
-50 14 -53 19 -31 51 26 35 28 35 39 7z"/>
</g>
</svg>
